<svg width="100" height="100" viewBox="0 0 100 100" fill="none" xmlns="http://www.w3.org/2000/svg">
<path d="M54.6033 16.8789C53.2224 16.7387 51.8156 16.6665 50.3881 16.6665C31.7643 16.6665 16.6667 28.9567 16.6667 44.1175C16.6667 59.2782 31.7643 71.5685 50.3881 71.5685C53.2991 71.5685 56.1239 71.2682 58.8184 70.7036L71.4639 83.3332V65.6861C77.1408 61.8474 81.703 56.0789 83.3334 49.9998M83.3334 31.2498C83.3334 37.0028 78.6697 41.6665 72.9167 41.6665C67.1638 41.6665 62.5001 37.0028 62.5001 31.2498C62.5001 25.4969 67.1638 20.8332 72.9167 20.8332C78.6697 20.8332 83.3334 25.4969 83.3334 31.2498Z" stroke="black" stroke-width="2" stroke-linecap="round" stroke-linejoin="round"/>
</svg>
